<svg width="15" height="15" viewBox="0 0 15 15" fill="none" xmlns="http://www.w3.org/2000/svg">
<path d="M11.0541 1H4.35135C2.50045 1 1 2.50045 1 4.35135V11.0541C1 12.905 2.50045 14.4054 4.35135 14.4054H11.0541C12.905 14.4054 14.4054 12.905 14.4054 11.0541V4.35135C14.4054 2.50045 12.905 1 11.0541 1Z" stroke="white" stroke-linecap="round" stroke-linejoin="round"/>
<path d="M10.3839 7.28049C10.4667 7.83832 10.3714 8.40803 10.1117 8.90859C9.85193 9.40914 9.44097 9.81506 8.93725 10.0686C8.43353 10.3221 7.86269 10.4104 7.30592 10.3208C6.74915 10.2312 6.23481 9.96833 5.83605 9.56957C5.4373 9.17081 5.17443 8.65647 5.08483 8.0997C4.99524 7.54294 5.08349 6.97209 5.33703 6.46837C5.59057 5.96465 5.99648 5.5537 6.49704 5.29397C6.9976 5.03424 7.56731 4.93896 8.12514 5.02168C8.69414 5.10606 9.22093 5.3712 9.62768 5.77795C10.0344 6.1847 10.2996 6.71148 10.3839 7.28049Z" stroke="white" stroke-linecap="round" stroke-linejoin="round"/>
<path d="M11.3892 4.01624H11.3961" stroke="white" stroke-linecap="round" stroke-linejoin="round"/>
</svg>
