<svg width="15" height="15" viewBox="0 0 15 15" fill="none" xmlns="http://www.w3.org/2000/svg">
<path d="M10.3837 5.02161C11.4503 5.02161 12.4732 5.44531 13.2274 6.19951C13.9816 6.95371 14.4053 7.97663 14.4053 9.04323V13.7351H11.7242V9.04323C11.7242 8.68769 11.583 8.34672 11.3316 8.09532C11.0802 7.84392 10.7392 7.70269 10.3837 7.70269C10.0281 7.70269 9.68718 7.84392 9.43578 8.09532C9.18438 8.34672 9.04314 8.68769 9.04314 9.04323V13.7351H6.36206V9.04323C6.36206 7.97663 6.78577 6.95371 7.53997 6.19951C8.29417 5.44531 9.31708 5.02161 10.3837 5.02161V5.02161Z" stroke="white" stroke-linecap="round" stroke-linejoin="round"/>
<path d="M3.68108 5.69189H1V13.7351H3.68108V5.69189Z" stroke="white" stroke-linecap="round" stroke-linejoin="round"/>
<path d="M2.34054 3.68108C3.0809 3.68108 3.68108 3.0809 3.68108 2.34054C3.68108 1.60018 3.0809 1 2.34054 1C1.60018 1 1 1.60018 1 2.34054C1 3.0809 1.60018 3.68108 2.34054 3.68108Z" stroke="white" stroke-linecap="round" stroke-linejoin="round"/>
</svg>
