<svg width="17" height="15" viewBox="0 0 17 15" fill="none" xmlns="http://www.w3.org/2000/svg">
<path d="M15.438 3.09839C15.3584 2.68687 15.1962 2.30982 14.9679 2.00532C14.7396 1.70083 14.4532 1.47967 14.1377 1.36418C12.9848 1 8.37336 1 8.37336 1C8.37336 1 3.7619 1 2.60903 1.39887C2.2935 1.51435 2.00711 1.73551 1.7788 2.04001C1.55048 2.3445 1.38833 2.72155 1.30871 3.13307C1.09772 4.64665 0.994509 6.18207 1.00038 7.72004C0.992862 9.2696 1.09608 10.8167 1.30871 12.3417C1.39649 12.7404 1.56228 13.1031 1.79006 13.3948C2.01784 13.6864 2.29992 13.8971 2.60903 14.0065C3.7619 14.4054 8.37336 14.4054 8.37336 14.4054C8.37336 14.4054 12.9848 14.4054 14.1377 14.0065C14.4532 13.8911 14.7396 13.6699 14.9679 13.3654C15.1962 13.0609 15.3584 12.6839 15.438 12.2723C15.6474 10.7702 15.7506 9.24644 15.7463 7.72004C15.7539 6.17049 15.6506 4.62336 15.438 3.09839V3.09839Z" stroke="white" stroke-linecap="round" stroke-linejoin="round"/>
<path d="M6.86523 10.5554L10.7193 7.71995L6.86523 4.88452V10.5554Z" stroke="white" stroke-linecap="round" stroke-linejoin="round"/>
</svg>
